# Blender v2.79 (sub 0) OBJ File: 'utedass.obj'
# www.blender.org
mtllib skybox.mtl
o cube1_default.001
v 2.000000 2.000000 2.000000
v -2.000000 2.000000 2.000000
v -2.000000 -0.000000 2.000000
v 2.000000 -0.000000 2.000000
v -2.000000 0.000000 -2.000000
v -2.000000 2.000000 -2.000000
v 2.000000 2.000000 -2.000000
v 2.000000 0.000000 -2.000000
vt 0.250000 0.750000
vt 0.750000 1.000000
vt 0.750000 0.750000
vt 0.000000 0.750000
vt 0.250000 0.250000
vt 0.000000 0.250000
vt 0.750000 0.250000
vt 1.000000 0.250000
vt 0.250000 0.000000
vt 0.750000 0.000000
vt 0.250000 1.000000
vt 1.000000 0.750000
vn -0.5774 0.5774 0.5774
vn 0.5726 -0.5870 0.5724
vn 0.5774 0.5774 0.5774
vn -0.5725 -0.5870 0.5725
vn -0.5774 0.5774 -0.5774
vn -0.5726 -0.5870 -0.5724
vn 0.5774 0.5774 -0.5774
vn 0.5723 -0.5870 -0.5727
usemtl default.001
s 1
f 2/1/1 4/2/2 1/3/3
f 3/4/4 6/5/5 5/6/6
f 2/1/1 7/7/7 6/5/5
f 1/3/3 8/8/8 7/7/7
f 5/9/6 7/7/7 8/10/8
f 2/1/1 3/11/4 4/2/2
f 3/4/4 2/1/1 6/5/5
f 2/1/1 1/3/3 7/7/7
f 1/3/3 4/12/2 8/8/8
f 5/9/6 6/5/5 7/7/7
