# Blender v2.79 (sub 0) OBJ File: 'utedass.blend'
# www.blender.org
mtllib utedass.mtl
o Cube
v 1.030843 -0.768936 0.912935
v -1.153327 -0.753341 0.925067
v -1.080767 -0.816593 -1.019490
v 1.132122 -0.796337 -1.203159
v 1.079895 1.176839 0.807189
v -1.037203 1.326951 0.786773
v -0.934238 1.298258 -1.124048
v -0.933332 3.414798 0.881985
v 0.836650 3.319781 -1.068315
v -0.837807 -0.263209 0.843717
v 1.015458 2.751534 0.918948
v 1.004840 3.489877 1.195983
v -0.970739 0.624964 0.924590
v 0.791020 2.373911 0.709432
v -0.854428 2.714329 0.738732
v -0.448032 -0.810972 0.903780
v 0.063688 0.601475 0.835063
v 0.869779 0.852073 0.893131
v -0.742058 1.133034 0.872241
v -0.098777 3.272567 0.868671
v 0.825096 1.816142 0.832869
v -0.506566 -0.232107 0.780021
v -0.732641 0.481239 0.959168
v 0.378947 1.433285 0.824032
v 0.056732 3.186951 0.834527
v -0.995503 1.955706 0.942040
v -0.001163 2.486417 0.885218
v 0.030866 1.852090 0.720799
v -0.317156 2.370204 0.749163
v 0.304322 2.315743 0.822848
v -0.504425 0.890174 0.856335
v 0.370565 0.950211 0.939677
v 0.828721 -0.153193 0.812054
v -0.523332 0.266219 0.811217
v 0.105846 1.964183 0.827273
v -0.294119 2.644515 0.815676
v 0.266931 2.639964 0.791598
v -0.012993 2.505941 0.538528
v 0.310924 2.143357 0.459594
v 0.098440 1.933282 0.456408
v -0.196404 2.213606 0.320225
v -0.230163 2.702660 0.425307
v 0.437267 2.640189 0.485767
v 0.996203 -0.853455 -0.625665
v -1.056479 0.238640 0.904707
v -0.006217 -0.725608 -1.174064
v 0.091161 0.948001 -1.077165
v -0.903239 3.488004 0.013858
v -1.046741 2.222342 -1.185305
v 0.931130 2.308409 -1.278503
v 1.051918 2.040464 0.910696
v -1.135492 2.332301 1.004331
v 1.050829 3.408581 -1.111550
v -0.964366 3.468946 1.102455
v -0.101376 3.431004 1.057959
v -0.946146 3.540081 0.261370
v 0.966971 3.660299 0.123883
v 0.046788 3.420295 0.123657
v 0.960159 2.256747 0.189879
v 0.244474 3.463348 -1.164181
v 1.065997 0.186187 -0.005145
v -0.886780 0.474609 0.124745
v -0.018242 2.553326 -1.124372
v 0.001669 -0.784936 -0.194865
v 0.873238 0.416252 0.866133
v -0.923986 -0.738590 -0.479403
v -1.056587 0.752614 -1.097927
v 0.891630 0.654465 -1.089508
v 1.026072 1.207773 -0.592348
v -1.033724 1.087170 -0.341750
v 0.464623 1.231709 -1.223340
v -0.453728 3.392544 0.877228
v 1.042105 3.361419 -0.631867
v -0.988392 3.296758 -1.106287
v 1.019739 1.561218 -1.096047
v -0.962263 3.068967 0.887040
v 1.048722 3.707329 -0.971131
v -0.932918 3.589483 -1.124810
v 1.083837 3.337216 -1.068219
v 0.976225 3.379542 0.869194
v 0.939912 0.052090 0.898328
v -0.988240 -0.767128 0.373635
v -1.068167 -0.204751 0.717310
v -0.864674 0.125809 -1.107794
v 1.043801 -0.231973 -1.110884
v 0.991585 1.242975 0.398621
v -0.992547 1.628250 0.459864
v 0.351369 3.385975 0.784658
v 0.994746 3.384164 -0.058341
v -1.070496 3.533413 0.452982
v 0.126875 3.371581 -1.122958
v 0.994267 2.815481 -1.126710
v 0.067023 3.517579 1.247618
v -0.831908 3.627831 0.688263
v -0.946051 3.513591 -1.069077
v -0.499918 3.405781 1.203111
v 0.617443 3.530286 1.176019
v -0.976824 3.611218 -0.261542
v -0.934238 3.411896 0.491807
v 1.097062 3.587101 0.514327
v -0.508692 3.579212 0.106332
v 0.535229 3.718824 0.092411
v 0.051171 3.639652 0.664297
v -1.103035 2.789230 -0.196300
v -1.122149 1.762931 -0.053934
v -1.028418 2.386825 0.401463
v 0.962139 1.912743 0.107314
v 0.286313 3.518983 -1.030188
v 0.972891 0.530172 -0.078244
v -0.921116 0.240519 -0.607340
v -0.949622 -0.306002 -0.611582
v 0.049244 2.050913 -1.106536
v 0.461582 2.237187 -0.989828
v -0.522273 2.329580 -1.110169
v -0.409373 -0.827371 -0.544070
v 0.506139 -0.908957 -1.165022
v 0.535944 2.927822 -1.237819
v -0.481153 0.591702 -1.213814
v -0.362873 -0.847213 -1.134455
v 0.016025 0.047634 -1.129130
v 1.003791 -0.455429 -0.002744
v 1.100509 1.207492 -0.368032
v 1.013603 2.320877 -0.565769
v 1.103647 2.899450 0.208351
v -0.931350 1.776783 -1.002044
v -1.040143 3.377977 -0.550580
v 0.205698 3.671705 -0.517109
v 1.031593 3.286361 0.413204
v 0.914169 3.606075 0.552883
v -0.472067 3.523397 1.144314
v 1.091676 3.648734 -0.421998
v 1.029817 2.926108 -0.389465
v -0.384808 3.685246 -1.002297
v 0.982344 0.025385 -0.694495
v 0.413144 0.733685 -1.232302
vn -0.0147 -0.0031 -0.9999
vn 0.4457 -0.0518 0.8937
vn -0.1469 -0.1334 0.9801
vn 0.0043 0.1773 0.9841
vn -0.0557 -0.8174 -0.5734
vn -0.8166 0.5763 -0.0317
vn -0.1388 -0.1705 0.9755
vn -0.1081 0.2332 0.9664
vn -0.0772 -0.2235 0.9716
vn 0.0808 -0.0610 0.9949
vn 0.8305 0.5562 0.0307
vn 0.3071 0.0434 0.9507
vn 0.1257 0.1754 0.9764
vn -0.5937 -0.2080 0.7773
vn 0.5445 0.7526 0.3703
vn 0.6709 0.7407 -0.0361
vn 0.0929 0.9952 -0.0316
vn -0.5089 0.7991 -0.3201
vn 0.0175 0.2338 -0.9721
vn -0.0198 -0.1375 -0.9903
vn 0.1112 0.1951 -0.9745
vn -0.9909 0.0526 -0.1238
vn -0.9796 0.1738 -0.1006
vn -0.0446 -0.9974 0.0558
vn 0.1735 -0.9832 -0.0564
vn -0.3391 -0.0379 -0.9400
vn 0.0384 -0.3414 -0.9391
vn -0.9570 0.0397 -0.2875
vn -0.9936 -0.0826 -0.0776
vn -0.1981 -0.0025 -0.9802
vn -0.0824 -0.9922 0.0939
vn -0.1602 -0.0556 -0.9855
vn 0.0380 0.0569 -0.9977
vn 0.9877 -0.0953 0.1237
vn 0.9939 0.1102 0.0084
vn 0.9306 -0.2718 -0.2451
vn 0.9840 -0.1398 -0.1105
vn -0.0887 -0.3113 -0.9462
vn -0.0264 0.1741 -0.9844
vn -0.0349 0.4249 -0.9046
vn 0.9975 -0.0110 0.0696
vn 0.9999 0.0113 -0.0046
vn 0.9855 0.1022 0.1353
vn -0.9603 -0.2058 0.1883
vn -0.9925 0.0357 -0.1166
vn -0.5007 0.8408 0.2057
vn 0.0145 0.9944 0.1050
vn 0.2666 0.8923 -0.3642
vn 0.1314 0.9814 0.1402
vn -0.9541 -0.2800 -0.1065
vn -0.9701 0.2102 -0.1211
vn -0.9898 0.1319 -0.0537
vn 0.2972 0.3697 0.8803
vn 0.0687 -0.9292 0.3632
vn -0.5376 -0.8391 -0.0826
vn 0.9964 0.0416 -0.0735
vn -0.0062 0.9955 0.0945
vn -0.9880 0.0392 0.1497
vn 0.9965 0.0173 0.0816
vn 0.9967 -0.0461 0.0666
vn 0.2729 -0.5997 -0.7523
vn 0.9905 -0.0964 -0.0977
vn 0.9997 0.0141 -0.0212
vn 0.2964 0.0738 -0.9522
vn -0.4018 0.0580 -0.9139
vn -0.5627 -0.0422 0.8256
vn 0.2598 -0.0316 -0.9651
vn -0.9743 0.2153 -0.0658
vn 0.9811 0.0665 0.1814
vn 0.9709 0.1084 -0.2134
vn -0.9740 -0.0156 0.2261
vn -0.1662 0.1748 0.9705
vn -0.2660 -0.0287 0.9635
vn -0.4557 -0.0171 0.8900
vn -0.0475 0.1267 0.9908
vn 0.6749 0.0163 0.7377
vn 0.0167 0.0041 0.9999
vn -0.3896 -0.1964 0.8998
vn -0.0722 0.0120 0.9973
vn -0.1648 0.9858 -0.0332
vn 0.0974 0.1213 0.9878
vn 0.1138 0.2115 0.9707
vn 0.3216 -0.1335 0.9374
vn -0.0209 -0.0516 0.9984
vn 0.0417 -0.0977 0.9943
vn -0.9550 0.1017 -0.2787
vn -0.0048 -0.0626 0.9980
vn 0.2009 -0.4150 0.8874
vn 0.0010 -0.0243 0.9997
vn -0.5929 -0.3095 0.7434
vn 0.1772 0.1617 0.9708
vn -0.0216 -0.1988 0.9798
vn 0.2089 -0.0186 0.9778
vn -0.0183 0.2249 0.9742
vn 0.3825 -0.9217 0.0650
vn -0.1596 -0.2200 0.9624
vn 0.0237 -0.2520 0.9674
vn 0.0692 0.1329 0.9887
vn -0.5357 -0.8350 -0.1259
vn 0.0479 -0.0185 0.9987
vn -0.5766 -0.2248 0.7855
vn 0.1050 -0.1211 0.9871
vn 0.1418 -0.0880 0.9860
vn -0.7967 0.5826 -0.1605
vn 0.9739 -0.0367 0.2240
vn -0.0559 -0.9488 0.3109
vn -0.1027 -0.8673 0.4871
vn -0.0804 -0.9286 0.3622
vn -0.9617 -0.2251 0.1563
vn 0.9824 0.0267 -0.1850
vn -0.7488 -0.6604 0.0568
vn -0.9864 -0.1526 -0.0616
vn -0.0164 0.9987 0.0479
vn -0.9576 0.2166 0.1900
vn 0.9865 0.0428 -0.1583
vn 0.9809 0.1576 -0.1141
vn 0.9893 0.0890 -0.1160
vn 0.9596 0.2387 0.1493
vn -0.9822 -0.1435 0.1209
vn 0.9996 0.0177 -0.0235
vn 0.1199 -0.0448 -0.9918
vn -0.0445 -0.1042 -0.9936
vn -0.2276 0.0420 -0.9729
vn 0.2714 0.0023 -0.9625
vn 0.1994 -0.3281 -0.9233
vn -0.3356 -0.9404 -0.0543
vn -0.0063 -0.9998 0.0203
vn 0.0308 -0.9959 0.0848
vn -0.0814 -0.9967 0.0005
vn 0.0289 -0.9933 -0.1116
vn -0.0173 -0.9929 0.1179
vn -0.0265 0.0578 -0.9980
vn -0.1905 -0.0031 -0.9817
vn 0.1730 0.2762 -0.9454
vn 0.1084 0.1940 -0.9750
vn -0.1901 -0.0569 -0.9801
vn -0.9740 0.1556 -0.1649
vn -0.9892 -0.0787 -0.1235
vn -0.9805 0.1552 0.1210
vn -0.9925 -0.0912 -0.0816
vn -0.0036 0.0826 -0.9966
vn -0.9982 0.0518 0.0302
vn 0.2091 0.0389 -0.9771
vn -0.2103 -0.0490 -0.9764
vn -0.1866 -0.0694 -0.9800
vn 0.9879 -0.1033 0.1157
vn -0.1308 0.0613 -0.9895
vn 0.9992 -0.0219 0.0333
vn 0.9478 0.0522 -0.3145
vn 0.0921 0.5743 -0.8135
vn 0.0348 -0.4518 -0.8914
vn 0.9968 0.0797 0.0108
vn 0.2005 0.8811 -0.4284
vn 0.9891 0.0191 -0.1463
vn 0.9926 0.0336 -0.1163
vn 0.9850 0.1534 0.0785
vn 0.9967 -0.0784 -0.0224
vn -0.9970 -0.0326 0.0698
vn 0.9686 -0.2125 -0.1291
vn -0.9710 -0.0276 0.2377
vn -0.9948 0.0811 -0.0612
vn -0.9793 -0.0439 -0.1977
vn -0.9806 -0.0104 -0.1958
vn 0.0676 0.9957 -0.0626
vn 0.0478 0.9819 0.1834
vn 0.0791 0.9762 0.2021
vn 0.0934 0.9840 0.1516
vn 0.1230 0.9826 0.1393
vn -0.1165 0.9869 0.1120
vn 0.9871 0.1503 0.0560
vn 0.9333 -0.3384 0.1199
vn -0.7702 -0.6366 -0.0384
vn 0.0702 -0.9956 0.0619
vn 0.1526 -0.9030 0.4016
vn -0.8997 -0.4361 -0.0201
vn 0.1347 0.9782 0.1578
vn 0.6307 0.7589 0.1618
vn -0.9335 0.3499 -0.0779
vn -0.1004 -0.9891 0.1078
vn 0.0555 0.9764 0.2085
vn -0.1261 0.4673 0.8751
vn -0.6449 0.7595 0.0851
vn -0.9875 -0.1535 -0.0344
vn 0.7383 -0.6493 0.1824
vn -0.9940 0.0930 -0.0568
vn 0.9959 -0.0483 -0.0770
vn -0.9671 0.2030 -0.1534
vn -0.9762 -0.2110 0.0493
vn -0.0484 0.4955 -0.8672
vn -0.3859 0.0852 -0.9186
vn 0.2163 -0.9761 -0.0192
vn -0.0314 0.0073 -0.9995
vn 0.1283 0.0658 -0.9895
vn -0.1755 -0.9834 -0.0461
usemtl Material
s off
f 114//1 74//1 91//1
f 5//2 18//2 65//2
f 37//3 11//3 25//3
f 22//4 10//4 2//4 16//4 1//4 33//4
f 97//5 12//5 93//5
f 35//6 40//6 28//6
f 32//7 17//7 33//7
f 32//8 24//8 31//8
f 32//9 31//9 17//9
f 18//10 32//10 65//10
f 28//11 41//11 29//11
f 37//12 25//12 27//12
f 31//13 23//13 17//13
f 41//14 38//14 42//14
f 28//15 40//15 41//15
f 90//16 54//16 99//16
f 101//17 98//17 94//17
f 102//18 58//18 103//18
f 108//19 133//19 77//19
f 135//20 85//20 120//20
f 7//21 47//21 118//21
f 110//22 84//22 111//22
f 83//23 62//23 111//23
f 1//24 64//24 44//24
f 44//25 116//25 4//25
f 47//26 112//26 71//26
f 113//27 63//27 117//27
f 83//28 82//28 2//28
f 111//29 66//29 82//29
f 7//30 118//30 67//30
f 3//31 119//31 115//31 66//31
f 84//32 119//32 3//32
f 46//33 120//33 116//33
f 121//34 61//34 81//34
f 1//35 121//35 81//35
f 5//36 65//36 86//36
f 69//37 68//37 75//37
f 95//38 60//38 91//38
f 74//39 95//39 91//39
f 53//40 108//40 77//40
f 123//41 59//41 107//41
f 69//42 75//42 123//42
f 122//43 107//43 86//43
f 87//44 105//44 70//44
f 70//45 125//45 7//45
f 102//46 127//46 58//46
f 77//47 127//47 131//47
f 58//48 101//48 103//48
f 100//49 57//49 129//49
f 48//50 99//50 56//50
f 126//51 95//51 74//51
f 95//52 98//52 78//52
f 55//53 130//53 96//53
f 97//54 93//54 55//54
f 54//55 98//55 56//55
f 53//56 77//56 131//56
f 133//57 98//57 101//57
f 105//58 106//58 104//58
f 132//59 73//59 89//59
f 123//60 132//60 59//60
f 95//61 78//61 133//61
f 121//62 134//62 61//62
f 121//63 44//63 134//63
f 135//64 68//64 85//64
f 47//65 71//65 135//65
f 81//66 65//66 33//66 1//66
f 68//67 135//67 71//67 75//67
f 70//68 7//68 67//68
f 85//69 134//69 44//69 4//69
f 9//70 73//70 132//70 92//70
f 90//71 106//71 76//71 8//71
f 19//72 6//72 13//72
f 45//73 83//73 2//73 10//73 23//73 13//73
f 5//74 51//74 11//74 14//74 21//74
f 25//75 11//75 80//75 88//75 20//75
f 76//76 52//76 26//76 15//76
f 76//77 20//77 72//77 8//77
f 26//78 6//78 19//78
f 25//79 20//79 36//79 27//79
f 133//80 78//80 98//80
f 30//81 35//81 21//81 14//81
f 32//82 18//82 5//82 24//82
f 23//83 10//83 22//83 34//83
f 33//84 17//84 22//84
f 65//85 32//85 33//85
f 43//86 39//86 30//86 37//86
f 22//87 17//87 34//87
f 17//88 23//88 34//88
f 21//89 35//89 24//89 5//89
f 24//90 35//90 28//90
f 29//91 15//91 26//91 28//91
f 20//92 76//92 15//92 36//92
f 19//93 28//93 26//93
f 19//94 24//94 28//94
f 38//95 43//95 37//95 27//95
f 29//96 36//96 15//96
f 37//97 30//97 14//97 11//97
f 13//98 23//98 31//98 19//98
f 38//99 27//99 36//99 42//99
f 31//100 24//100 19//100
f 41//101 40//101 38//101
f 40//102 39//102 38//102
f 38//103 39//103 43//103
f 39//104 40//104 35//104 30//104
f 42//105 36//105 29//105 41//105
f 55//106 96//106 72//106 20//106
f 130//107 55//107 93//107
f 12//108 97//108 88//108 80//108
f 56//109 98//109 126//109 48//109
f 57//110 100//110 128//110 89//110
f 90//111 8//111 54//111
f 106//112 87//112 26//112 52//112
f 77//113 133//113 127//113
f 104//114 48//114 126//114
f 68//115 122//115 134//115 85//115
f 124//116 132//116 89//116
f 75//117 50//117 123//117
f 109//118 65//118 81//118 61//118
f 110//119 62//119 87//119 70//119
f 1//120 44//120 121//120
f 118//121 120//121 119//121
f 114//122 63//122 112//122 125//122
f 117//123 63//123 91//123
f 112//124 63//124 113//124
f 125//125 49//125 114//125
f 64//126 46//126 116//126
f 1//127 82//127 64//127
f 82//128 115//128 64//128
f 16//129 2//129 82//129
f 1//130 16//130 82//130
f 64//131 116//131 44//131
f 125//132 112//132 47//132 7//132
f 113//133 50//133 75//133 112//133
f 9//134 92//134 117//134 91//134
f 75//135 71//135 112//135
f 117//136 92//136 50//136 113//136
f 62//137 83//137 45//137 13//137
f 87//138 62//138 13//138 6//138
f 3//139 66//139 111//139 84//139
f 83//140 111//140 82//140
f 85//141 4//141 116//141 120//141
f 62//142 110//142 111//142
f 118//143 47//143 120//143
f 84//144 67//144 118//144
f 84//145 118//145 119//145
f 109//146 122//146 86//146 65//146
f 46//147 119//147 120//147
f 134//148 122//148 109//148 61//148
f 69//149 122//149 68//149
f 108//150 53//150 79//150 60//150
f 60//151 79//151 9//151 91//151
f 107//152 122//152 69//152 123//152
f 108//153 60//153 133//153
f 107//154 51//154 5//154 86//154
f 107//155 59//155 51//155
f 89//156 80//156 11//156 124//156
f 11//157 51//157 59//157 124//157
f 74//158 49//158 125//158 126//158
f 59//159 132//159 124//159
f 105//160 87//160 106//160
f 6//161 26//161 87//161
f 70//162 105//162 125//162
f 126//163 125//163 105//163 104//163
f 102//164 57//164 131//164 127//164
f 93//165 12//165 129//165 102//165
f 93//166 102//166 103//166
f 94//167 54//167 130//167 101//167
f 129//168 57//168 102//168
f 130//169 93//169 103//169 101//169
f 53//170 57//170 89//170 79//170
f 100//171 12//171 80//171 128//171
f 89//172 73//172 79//172
f 73//173 9//173 79//173
f 97//174 55//174 20//174 88//174
f 89//175 128//175 80//175
f 12//176 100//176 129//176
f 48//177 90//177 99//177
f 95//178 126//178 98//178
f 96//179 54//179 8//179 72//179
f 101//180 58//180 127//180 133//180
f 54//181 96//181 130//181
f 54//182 94//182 98//182
f 99//183 54//183 56//183
f 57//184 53//184 131//184
f 48//185 104//185 106//185 90//185
f 92//186 132//186 123//186 50//186
f 106//187 52//187 76//187
f 67//188 84//188 110//188 70//188
f 60//189 95//189 133//189
f 120//190 47//190 135//190
f 46//191 64//191 115//191 119//191
f 63//192 114//192 91//192
f 114//193 49//193 74//193
f 115//194 82//194 66//194
